<svg width="27" height="23" viewBox="0 0 32 28" fill="none" xmlns="http://www.w3.org/2000/svg">
<path d="M7.6154 21.999C7.77386 22.1567 7.98842 22.2451 8.21186 22.2451C8.43549 22.2451 8.64986 22.1567 8.80852 21.999L17.0757 13.7318L17.0755 13.732C17.2621 13.514 17.3256 13.2166 17.2444 12.9415C17.1629 12.6665 16.9478 12.4514 16.6728 12.37C16.3978 12.2888 16.1004 12.3523 15.8826 12.5389L8.20772 20.2302L6.11762 18.1148C5.89985 17.9282 5.60239 17.8647 5.32736 17.9461C5.05236 18.0273 4.83722 18.2425 4.75585 18.5174C4.67463 18.7924 4.73809 19.0899 4.9247 19.3079L7.6154 21.999Z" fill="#546E7A"/>
<path d="M16.9231 3.30768V1.61537C16.9231 1.31298 16.7618 1.03365 16.5 0.88255C16.2382 0.731451 15.9156 0.731451 15.6538 0.88255C15.3921 1.03365 15.2308 1.31299 15.2308 1.61537V3.30768H6.76923V1.61537C6.76923 1.31298 6.60793 1.03365 6.34615 0.88255C6.08437 0.731451 5.76178 0.731451 5.5 0.88255C5.23822 1.03365 5.07692 1.31299 5.07692 1.61537V3.30768C3.73043 3.30768 2.4391 3.84254 1.48701 4.79468C0.534914 5.74682 0 7.0381 0 8.3846V21.0769C0 22.4234 0.534866 23.7147 1.48701 24.6668C2.43915 25.6189 3.73043 26.1538 5.07692 26.1538H16.9231C18.2696 26.1538 19.5609 25.619 20.513 24.6668C21.4651 23.7147 22 22.4234 22 21.0769V8.3846C22 7.0381 21.4651 5.74678 20.513 4.79468C19.5609 3.84259 18.2696 3.30768 16.9231 3.30768ZM5.07692 4.99998V6.69229C5.07692 6.99468 5.23822 7.27401 5.5 7.42511C5.76178 7.57621 6.08438 7.57621 6.34615 7.42511C6.60793 7.27401 6.76923 6.99467 6.76923 6.69229V4.99998H15.2308V6.69229C15.2308 6.99468 15.3921 7.27401 15.6538 7.42511C15.9156 7.57621 16.2382 7.57621 16.5 7.42511C16.7618 7.27401 16.9231 6.99467 16.9231 6.69229V4.99998C17.8208 4.99998 18.6817 5.35658 19.3163 5.99139C19.9511 6.626 20.3077 7.4869 20.3077 8.3846H1.69231C1.69231 7.4869 2.0489 6.626 2.68371 5.99139C3.31833 5.35658 4.17923 4.99998 5.07692 4.99998V4.99998ZM20.3077 21.0769C20.3077 21.9746 19.9511 22.8355 19.3163 23.4701C18.6817 24.1049 17.8208 24.4615 16.9231 24.4615H5.07692C4.17923 24.4615 3.31833 24.1049 2.68371 23.4701C2.0489 22.8355 1.69231 21.9746 1.69231 21.0769V10.0769H20.3077V21.0769Z" fill="#546E7A"/>
</svg>
