<svg width="27" height="23" viewBox="0 0 27 23" fill="none" xmlns="http://www.w3.org/2000/svg">
<path d="M9.10349 9.48279H5.6897V12.138H9.10349V9.48279Z" />
<path d="M12.1378 11H10.6206V12.1379H12.1378V11Z"/>
<path d="M15.1724 11H13.6552V12.1379H15.1724V11Z"/>
<path d="M4.17238 6.29285C3.9371 6.68669 3.60379 7.01285 3.20493 7.23953C2.80608 7.46621 2.35529 7.58568 1.89652 7.58629C1.7695 7.58577 1.6427 7.57563 1.51721 7.55595V15.1725H4.93101V14.4139H3.79307C3.69247 14.4139 3.596 14.3739 3.52486 14.3028C3.45373 14.2316 3.41376 14.1352 3.41376 14.0346V12.5173C3.41376 12.4167 3.45373 12.3203 3.52486 12.2491C3.596 12.178 3.69247 12.138 3.79307 12.138H4.93101V7.10836C4.62392 6.89253 4.36549 6.61471 4.17238 6.29285V6.29285Z" />
<path d="M12.8965 4.93097V3.7627H9.10339V4.93097C9.10339 5.43397 9.30321 5.91636 9.65888 6.27204C10.0146 6.62771 10.4969 6.82752 10.9999 6.82752C11.5029 6.82752 11.9853 6.62771 12.341 6.27204C12.6967 5.91636 12.8965 5.43397 12.8965 4.93097Z" />
<path d="M4.55176 4.93097C4.55176 5.43397 4.75157 5.91636 5.10724 6.27204C5.46292 6.62771 5.94531 6.82752 6.44831 6.82752C6.95131 6.82752 7.4337 6.62771 7.78937 6.27204C8.14505 5.91636 8.34486 5.43397 8.34486 4.93097V3.7627H4.55176V4.93097Z" />
<path d="M16.3104 14.4138H5.6897V15.1724H16.3104V14.4138Z" />
<path d="M17.8275 12.8966H4.17236V13.6552H17.8275V12.8966Z"/>
<path d="M17.4483 4.93097V3.7627H13.6552V4.93097C13.6552 5.43397 13.855 5.91636 14.2106 6.27204C14.5663 6.62771 15.0487 6.82752 15.5517 6.82752C16.0547 6.82752 16.5371 6.62771 16.8928 6.27204C17.2484 5.91636 17.4483 5.43397 17.4483 4.93097Z" />
<path d="M21.3931 3.00414L18.0627 0H15.271L17.9944 3.00414H21.3931Z" />
<path d="M3.7931 4.93097V3.7627H0V4.93097C0 5.43397 0.199815 5.91636 0.555487 6.27204C0.91116 6.62771 1.39355 6.82752 1.89655 6.82752C2.39955 6.82752 2.88194 6.62771 3.23762 6.27204C3.59329 5.91636 3.7931 5.43397 3.7931 4.93097Z" />
<path d="M1.51721 22H20.4827V17.4482H1.51721V22ZM6.82756 18.5862H15.1724V20.862H6.82756V18.5862Z" />
<path d="M20.4828 7.55595C20.3573 7.57563 20.2305 7.58577 20.1035 7.58629C19.6447 7.58568 19.1939 7.46621 18.795 7.23953C18.3962 7.01285 18.0629 6.68669 17.8276 6.29285C17.6345 6.61471 17.3761 6.89253 17.069 7.10836V12.138H18.2069C18.3075 12.138 18.404 12.178 18.4751 12.2491C18.5462 12.3203 18.5862 12.4167 18.5862 12.5173V14.0346C18.5862 14.1352 18.5462 14.2316 18.4751 14.3028C18.404 14.3739 18.3075 14.4139 18.2069 14.4139H17.069V15.1725H20.4828V7.55595Z" />
<path d="M18.2069 3.7627V4.93097C18.2069 5.43397 18.4067 5.91636 18.7624 6.27204C19.1181 6.62771 19.6005 6.82752 20.1035 6.82752C20.6065 6.82752 21.0889 6.62771 21.4445 6.27204C21.8002 5.91636 22 5.43397 22 4.93097V3.7627H18.2069Z" />
<path d="M21.2414 15.931H0.758667V16.6897H21.2414V15.931Z" />
<path d="M8.46621 3.00414L9.68001 0H7.75311L5.02966 3.00414H8.46621Z" />
<path d="M16.9703 3.00414L14.2468 0H12.3199L13.5299 3.00414H16.9703Z" />
<path d="M12.7145 3.00414L11.5045 0H10.4993L9.28552 3.00414H12.7145Z" />
<path d="M6.729 0H3.93728L0.606934 3.00414H4.00555L6.729 0Z" />
</svg>
