<svg width="16" height="18" viewBox="0 0 16 18" fill="none" xmlns="http://www.w3.org/2000/svg">
<path d="M5.45248 13.5063C5.57218 13.626 5.72878 13.6857 5.88556 13.6857C6.04234 13.6857 6.19912 13.626 6.31864 13.5063L7.94746 11.8775L9.57628 13.5063C9.69598 13.626 9.85258 13.6857 10.0094 13.6857C10.1661 13.6857 10.3229 13.626 10.4424 13.5063C10.6817 13.2671 10.6817 12.8793 10.4424 12.6401L8.81344 11.0113L10.4424 9.38249C10.6817 9.14327 10.6817 8.75555 10.4424 8.51633C10.2032 8.27711 9.8155 8.27711 9.5761 8.51633L7.94728 10.1451L6.31846 8.51633C6.07924 8.27711 5.69152 8.27711 5.4523 8.51633C5.21308 8.75555 5.21308 9.14327 5.4523 9.38249L7.08112 11.0113L5.4523 12.6401C5.21326 12.8793 5.21326 13.2672 5.45248 13.5063Z" fill="#4E4F54"/>
<path d="M1.7614 14.4441C1.7614 16.0103 3.03112 17.28 4.5973 17.28H11.4164C12.9826 17.28 14.2523 16.0103 14.2523 14.4441V4.74268H1.7614V14.4441ZM2.98648 5.96776H13.0272V14.4441C13.0272 15.3323 12.3045 16.055 11.4164 16.055H4.5973C3.70918 16.055 2.98648 15.3324 2.98648 14.4441V5.96776Z" fill="#4E4F54"/>
<path d="M14.9219 2.19618H11.2076V1.60794C11.2076 0.72126 10.4862 0 9.59968 0H6.4144C5.52772 0 4.80646 0.72126 4.80646 1.60794V2.19618H1.07812C0.739716 2.19618 0.465576 2.47032 0.465576 2.80872C0.465576 3.14712 0.739716 3.42126 1.07812 3.42126H14.9217C15.2601 3.42126 15.5343 3.14712 15.5343 2.80872C15.5343 2.47032 15.2601 2.19618 14.9219 2.19618ZM9.98236 2.19618H6.03136V1.60794C6.03136 1.39698 6.20308 1.22508 6.41422 1.22508H9.5995C9.81046 1.22508 9.98236 1.3968 9.98236 1.60794V2.19618V2.19618Z" fill="#4E4F54"/>
</svg>
