<svg width="27" height="23" viewBox="0 0 27 23" fill="none" xmlns="http://www.w3.org/2000/svg">
<path d="M4.76507 19.666C5.47309 20.0943 5.91599 20.7646 5.91599 21.509C5.91599 21.6118 5.90754 21.7138 5.89079 21.8146C5.87062 21.936 5.76557 22.0251 5.64246 22.0251H0.273532C0.150419 22.0251 0.0453738 21.936 0.025199 21.8146C0.00845676 21.7138 0 21.6118 0 21.509C0 20.7211 0.496009 20.0181 1.27292 19.596C1.73509 20.1232 2.35744 20.4473 3.05071 20.4473C3.71274 20.4473 4.31011 20.1518 4.76507 19.666ZM3.05071 19.9438C1.89866 19.9438 0.951478 18.7572 0.951478 17.2712C0.951478 15.7853 1.89866 14.5986 3.05071 14.5986C4.20276 14.5986 5.14994 15.7853 5.14994 17.2712C5.14994 18.7572 4.20276 19.9438 3.05071 19.9438ZM15.1678 0.755859C16.732 0.755859 17.9996 2.02422 18 3.58812C18 6.04225 15.1678 8.30819 15.1678 8.30819C15.1678 8.30819 12.3355 6.04225 12.3355 3.58812C12.3355 2.02422 13.6035 0.755859 15.1678 0.755859ZM15.1678 4.72194C15.7921 4.72194 16.3003 4.21412 16.3008 3.58849C16.3008 2.9633 15.7921 2.45593 15.1678 2.45593C14.543 2.45593 14.0347 2.9633 14.0347 3.58849C14.0347 4.21457 14.543 4.72194 15.1678 4.72194ZM6.41948 19.98C6.24569 19.98 6.1048 19.8391 6.1048 19.6653C6.1048 19.4915 6.24569 19.3506 6.41948 19.3506H7.6782C7.852 19.3506 7.99288 19.4915 7.99288 19.6653C7.99288 19.8391 7.852 19.98 7.6782 19.98H6.41948ZM8.93693 19.98C8.76313 19.98 8.62225 19.8391 8.62225 19.6653C8.62225 19.4915 8.76313 19.3506 8.93693 19.3506H10.1956C10.3694 19.3506 10.5103 19.4915 10.5103 19.6653C10.5103 19.8391 10.3694 19.98 10.1956 19.98H8.93693ZM11.5201 19.8993C11.3506 19.9378 11.182 19.8317 11.1434 19.6622C11.1049 19.4927 11.2111 19.3241 11.3805 19.2856C11.7487 19.2019 12.0925 19.0391 12.3905 18.8098C12.5283 18.7038 12.7258 18.7296 12.8318 18.8673C12.9378 19.0051 12.9121 19.2027 12.7743 19.3086C12.4046 19.5931 11.9776 19.7952 11.5201 19.8993ZM13.6695 18.2462C13.5885 18.4 13.3982 18.459 13.2444 18.378C13.0906 18.297 13.0316 18.1067 13.1126 17.9529C13.287 17.6219 13.3885 17.2566 13.4085 16.8764C13.4176 16.7029 13.5657 16.5696 13.7392 16.5787C13.9128 16.5878 14.0461 16.7359 14.037 16.9095C14.0122 17.3811 13.886 17.8351 13.6695 18.2462ZM13.8052 15.5194C13.8705 15.6805 13.7928 15.8639 13.6317 15.9292C13.4707 15.9945 13.2872 15.9168 13.2219 15.7557C13.0806 15.4068 12.8647 15.0924 12.5907 14.8341C12.4642 14.7149 12.4583 14.5157 12.5775 14.3893C12.6967 14.2628 12.8959 14.2569 13.0223 14.3761C13.362 14.6963 13.6297 15.0862 13.8052 15.5194ZM11.8308 13.6613C11.9956 13.7166 12.0843 13.895 12.029 14.0598C11.9737 14.2245 11.7953 14.3133 11.6305 14.258C11.3678 14.1698 11.0911 14.1238 10.8089 14.1228L10.4736 14.1227C10.2998 14.1227 10.1589 13.9818 10.1589 13.808C10.1589 13.6342 10.2998 13.4934 10.4736 13.4934L10.8101 13.4934C11.1609 13.4947 11.5044 13.5518 11.8308 13.6613ZM9.22349 13.4924C9.39722 13.4972 9.53418 13.6419 9.52941 13.8156C9.52464 13.9893 9.37994 14.1263 9.20622 14.1215C8.73262 14.1085 8.2751 13.9918 7.85982 13.7823C7.70466 13.704 7.64236 13.5147 7.72064 13.3596C7.79893 13.2044 7.98818 13.1421 8.14334 13.2204C8.47636 13.3884 8.84302 13.4819 9.22349 13.4924ZM7.28064 12.5138C7.38806 12.6504 7.36438 12.8482 7.22776 12.9556C7.09113 13.0631 6.8933 13.0394 6.78588 12.9028C6.49701 12.5353 6.29153 12.1087 6.18608 11.6506C6.1471 11.4812 6.25276 11.3123 6.42212 11.2733C6.59149 11.2344 6.76042 11.34 6.7994 11.5094C6.88393 11.8766 7.04872 12.2188 7.28064 12.5138ZM6.79436 10.3774C6.7569 10.5471 6.58894 10.6543 6.41924 10.6169C6.24953 10.5794 6.14232 10.4115 6.17978 10.2418C6.28113 9.78264 6.48279 9.35416 6.76837 8.98422C6.87456 8.84664 7.07221 8.82121 7.20978 8.9274C7.34735 9.0336 7.37277 9.23122 7.26657 9.36879C7.03731 9.66578 6.8756 10.0094 6.79436 10.3774ZM8.12555 8.65318C7.971 8.73268 7.78127 8.67185 7.70177 8.5173C7.62227 8.36276 7.68309 8.17303 7.83763 8.09353C8.25136 7.8807 8.708 7.76042 9.18129 7.74377C9.35498 7.73766 9.50075 7.8735 9.50685 8.04719C9.51296 8.22087 9.37711 8.36663 9.20342 8.37274C8.82326 8.38611 8.45733 8.4825 8.12555 8.65318ZM10.4677 8.37113C10.2939 8.37113 10.153 8.23024 10.153 8.05645C10.153 7.88265 10.2939 7.74177 10.4677 7.74177H11.7264C11.9002 7.74177 12.0411 7.88265 12.0411 8.05645C12.0411 8.23024 11.9002 8.37113 11.7264 8.37113H10.4677ZM12.9851 8.37113C12.8113 8.37113 12.6704 8.23024 12.6704 8.05645C12.6704 7.88265 12.8113 7.74177 12.9851 7.74177H13.7268C13.9006 7.74177 14.0415 7.88265 14.0415 8.05645C14.0415 8.23024 13.9006 8.37113 13.7268 8.37113H12.9851Z"/>
</svg>
