<svg width="27" height="23" viewBox="0 0 27 22" fill="none" xmlns="http://www.w3.org/2000/svg">
<path fill-rule="evenodd" clip-rule="evenodd" d="M8.06654 2.93331H13.9332C14.1953 2.93331 14.4374 2.79352 14.5683 2.56664C14.6993 2.33977 14.6993 2.06018 14.5683 1.83331C14.4374 1.60644 14.1953 1.46664 13.9332 1.46664H8.06654C7.80448 1.46664 7.56239 1.60643 7.43144 1.83331C7.30048 2.06019 7.30048 2.33977 7.43144 2.56664C7.56239 2.79352 7.80448 2.93331 8.06654 2.93331Z" />
<path fill-rule="evenodd" clip-rule="evenodd" d="M5.86654 4.39999C6.06101 4.39999 6.24762 4.32273 6.38511 4.18523C6.52261 4.04773 6.59988 3.86112 6.59988 3.66666V0.733323C6.59988 0.471255 6.46009 0.229167 6.23321 0.0982143C6.00633 -0.0327381 5.72675 -0.0327381 5.49988 0.0982143C5.273 0.229167 5.13321 0.471263 5.13321 0.733323V3.66666C5.13321 3.86112 5.21047 4.04773 5.34797 4.18523C5.48547 4.32273 5.67208 4.39999 5.86654 4.39999Z"/>
<path fill-rule="evenodd" clip-rule="evenodd" d="M16.1332 4.39999C16.3277 4.39999 16.5143 4.32273 16.6518 4.18523C16.7893 4.04773 16.8665 3.86112 16.8665 3.66666V0.733323C16.8665 0.471255 16.7267 0.229167 16.4999 0.0982143C16.273 -0.0327381 15.9934 -0.0327381 15.7665 0.0982143C15.5397 0.229167 15.3999 0.471263 15.3999 0.733323V3.66666C15.3999 3.86112 15.4771 4.04773 15.6146 4.18523C15.7521 4.32273 15.9387 4.39999 16.1332 4.39999Z" />
<path fill-rule="evenodd" clip-rule="evenodd" d="M21.3554 2.11127C20.9429 1.6986 20.3834 1.46681 19.8 1.46664H18.3333C18.0713 1.46664 17.8292 1.60643 17.6982 1.83331C17.5673 2.06019 17.5673 2.33977 17.6982 2.56664C17.8292 2.79352 18.0713 2.93331 18.3333 2.93331H19.8C19.9945 2.93331 20.1811 3.01058 20.3186 3.14807C20.4561 3.28557 20.5333 3.47218 20.5333 3.66665V5.86665H17.6C17.3379 5.86665 17.0959 6.00644 16.9649 6.23331C16.8339 6.46019 16.8339 6.73977 16.9649 6.96665C17.0959 7.19352 17.3379 7.33331 17.6 7.33331H20.5333V19.8C20.5333 19.9944 20.4561 20.1811 20.3186 20.3186C20.1811 20.4561 19.9945 20.5333 19.8 20.5333H2.2C2.00554 20.5333 1.81893 20.4561 1.68143 20.3186C1.54393 20.1811 1.46667 19.9944 1.46667 19.8V7.33331H14.6667C14.9287 7.33331 15.1708 7.19352 15.3018 6.96665C15.4327 6.73977 15.4327 6.46019 15.3018 6.23331C15.1708 6.00644 14.9287 5.86665 14.6667 5.86665H1.46667V3.66665C1.46667 3.47218 1.54393 3.28557 1.68143 3.14807C1.81893 3.01058 2.00554 2.93331 2.2 2.93331H3.66667C3.92874 2.93331 4.17082 2.79352 4.30178 2.56664C4.43273 2.33977 4.43273 2.06018 4.30178 1.83331C4.17082 1.60644 3.92873 1.46664 3.66667 1.46664H2.2C1.61644 1.46664 1.05696 1.69843 0.644286 2.11093C0.231784 2.5236 0 3.08308 0 3.66665V19.8C0 20.3836 0.231784 20.943 0.644286 21.3557C1.05695 21.7682 1.61644 22 2.2 22H19.8C20.3836 22 20.943 21.7682 21.3557 21.3557C21.7682 20.943 22 20.3836 22 19.8V3.66665C21.9998 3.08325 21.7681 2.52378 21.3554 2.11127V2.11127Z" />
<path fill-rule="evenodd" clip-rule="evenodd" d="M10.9999 8.79999C9.63846 8.79999 8.33271 9.34081 7.37003 10.3035C6.40735 11.2662 5.86653 12.5719 5.86653 13.9333C5.86653 15.2947 6.40735 16.6005 7.37003 17.5632C8.33271 18.5258 9.63846 19.0667 10.9999 19.0667C12.3613 19.0667 13.667 18.5258 14.6297 17.5632C15.5924 16.6005 16.1332 15.2947 16.1332 13.9333C16.1332 12.5719 15.5924 11.2662 14.6297 10.3035C13.667 9.34081 12.3613 8.79999 10.9999 8.79999V8.79999ZM10.9999 17.6C10.0274 17.6 9.09483 17.2137 8.40718 16.526C7.71952 15.8383 7.3332 14.9058 7.3332 13.9333C7.3332 12.9608 7.71951 12.0283 8.40718 11.3406C9.09484 10.653 10.0274 10.2667 10.9999 10.2667C11.9724 10.2667 12.9049 10.653 13.5926 11.3406C14.2802 12.0283 14.6665 12.9608 14.6665 13.9333C14.6665 14.9058 14.2802 15.8384 13.5926 16.526C12.9049 17.2137 11.9724 17.6 10.9999 17.6Z" />
<path fill-rule="evenodd" clip-rule="evenodd" d="M11.7332 13.6295V11.7332C11.7332 11.4711 11.5934 11.229 11.3665 11.0981C11.1397 10.9671 10.8601 10.9671 10.6332 11.0981C10.4063 11.229 10.2665 11.4711 10.2665 11.7332V13.9332C10.2665 14.1276 10.3438 14.3141 10.4815 14.4516L11.9481 15.9182C12.1344 16.0981 12.4017 16.1666 12.6515 16.0981C12.9011 16.0296 13.0962 15.8344 13.1648 15.5848C13.2333 15.335 13.1648 15.0677 12.9849 14.8814L11.7332 13.6295Z"/>
</svg>
