<svg width="27" height="23" viewBox="0 0 27 23" fill="none" xmlns="http://www.w3.org/2000/svg">
<path d="M11.6647 0C5.23286 0 0 5.23352 0 11.6657C0 18.0972 5.23286 23.33 11.6647 23.33C18.0969 23.33 23.33 18.0972 23.33 11.6657C23.3297 5.23352 18.0969 0 11.6647 0ZM11.6647 21.467C6.25998 21.467 1.86301 17.0704 1.86301 11.6657C1.86301 9.98371 2.28917 8.39998 3.03832 7.01505C2.97622 8.01095 3.09845 9.12449 3.44312 10.3573C5.97938 4.70386 16.4313 8.26888 17.3861 3.71387C19.8554 5.49539 21.467 8.39473 21.467 11.6657C21.467 17.0704 17.0697 21.467 11.6647 21.467Z" />
<path d="M17.4358 11.7869C17.5327 11.5438 17.5872 11.2779 17.5872 10.999C17.5872 9.85489 16.6863 8.92798 15.5754 8.92798C14.4638 8.92798 13.5629 9.85456 13.5629 10.999C13.5629 11.2783 13.6174 11.5438 13.715 11.7862C14.2456 11.5635 14.886 11.4334 15.5754 11.4334C16.2641 11.4334 16.9045 11.5635 17.4358 11.7869Z" />
<path d="M9.56877 11.7869C9.66636 11.5438 9.7209 11.2779 9.7209 10.999C9.7209 9.85489 8.81995 8.92798 7.70905 8.92798C6.59748 8.92798 5.69653 9.85456 5.69653 10.999C5.69653 11.2783 5.75108 11.5438 5.84801 11.7862C6.37931 11.5635 7.0197 11.4334 7.70839 11.4334C8.39741 11.4334 9.0378 11.5635 9.56877 11.7869Z"/>
<path d="M11.6647 19.2997C13.6657 19.2997 14.9613 17.6904 14.4172 16.7585C13.7524 17.1545 12.7661 17.4062 11.6647 17.4062C10.5633 17.4062 9.57693 17.1545 8.91223 16.7585C8.36778 17.6904 9.66368 19.2997 11.6647 19.2997Z"/>
</svg>
