<svg width="27" height="23" viewBox="0 0 24 24" fill="none" xmlns="http://www.w3.org/2000/svg">
<path d="M17.2606 5.41001C17.2562 5.39739 17.253 5.38528 17.2476 5.37301V5.37318C17.2285 5.33039 17.2018 5.29146 17.169 5.25796L12.4548 0.543685C12.4214 0.510713 12.3822 0.484057 12.3392 0.465114C12.3274 0.459678 12.3157 0.45652 12.3034 0.452136C12.2701 0.440736 12.2354 0.433721 12.2001 0.431792C12.1938 0.433019 12.1868 0.428635 12.1785 0.428635H0.392856C0.17591 0.428635 0 0.604544 0 0.821491V23.6071C0 23.7113 0.0413904 23.8113 0.115051 23.8849C0.188711 23.9586 0.28868 24 0.392856 24H16.8928C16.997 24 17.097 23.9586 17.1706 23.8849C17.2443 23.8113 17.2857 23.7113 17.2857 23.6071V5.53576C17.2857 5.52717 17.2813 5.51963 17.2806 5.51103C17.2786 5.47666 17.2718 5.44264 17.2606 5.41001V5.41001ZM15.9445 5.14291H12.9643C12.7473 5.14291 12.5714 4.967 12.5714 4.75005V1.76978L15.9445 5.14291ZM0.785686 23.2143V1.21435H11.7857V4.75005C11.7857 5.06258 11.9098 5.3625 12.1308 5.58345C12.3518 5.80439 12.6517 5.9286 12.9642 5.9286H16.4999V23.2143L0.785686 23.2143Z"/>
<path d="M8.64289 7.49999C7.5287 7.49964 6.45062 7.89583 5.60178 8.61772L5.38501 8.40095V8.40078C5.31135 8.32712 5.21138 8.28573 5.1072 8.28573H3.92863V9.07144H4.94463L5.04635 9.17316C4.26697 10.0928 3.86953 11.2762 3.93585 12.4798C4.00197 13.6835 4.5267 14.8161 5.40221 15.6447C6.27772 16.4734 7.43752 16.9352 8.64293 16.9352C9.84835 16.9352 11.0082 16.4734 11.8837 15.6447C12.7592 14.8161 13.2839 13.6834 13.35 12.4798C13.4163 11.2761 13.0189 10.0928 12.2395 9.17316L12.7341 8.67856H13.3573V7.89285H12.5715C12.4674 7.89285 12.3674 7.93424 12.2937 8.0079L11.6841 8.61753V8.6177C10.8353 7.89583 9.75719 7.49966 8.643 7.49997L8.64289 7.49999ZM4.71433 12.2143C4.71363 11.3082 5.02774 10.4299 5.60299 9.7298L6.40083 10.5276L6.95626 9.9722L6.15842 9.17437C6.75453 8.68471 7.48237 8.38232 8.25003 8.30568V12.2143C8.25003 12.3184 8.29142 12.4184 8.36508 12.4921L11.1272 15.2542H11.1274C10.3564 15.8857 9.37407 16.2004 8.37967 16.1344C7.38527 16.0683 6.45311 15.6265 5.77245 14.8985C5.0918 14.1705 4.71349 13.211 4.71439 12.2143L4.71433 12.2143ZM12.5714 12.2143C12.5722 13.1203 12.258 13.9986 11.6828 14.6987L9.03575 12.0517V8.30568C9.80341 8.38232 10.5312 8.68468 11.1274 9.17437L10.3295 9.9722L10.885 10.5276L11.6828 9.7298C12.258 10.4299 12.5722 11.3082 12.5714 12.2143Z"/>
<path d="M2.35719 2.78575H3.14291V3.57146H2.35719V2.78575Z" />
<path d="M3.92862 2.78575H10.2143V3.57146H3.92862V2.78575Z" />
<path d="M2.35719 4.35716H10.2143V5.14287H2.35719V4.35716Z" />
<path d="M1.57147 7.5H3.1429V8.28571H1.57147V7.5Z" />
<path d="M1.57147 9.07144H3.1429V9.85715H1.57147V9.07144Z" />
<path d="M14.1429 7.5H15.7143V8.28571H14.1429V7.5Z" />
<path d="M14.1429 9.07144H15.7143V9.85715H14.1429V9.07144Z" />
<path d="M2.35719 18.1071H3.92862V18.8928H2.35719V18.1071Z" />
<path d="M4.71432 18.1071H8.64288V18.8928H4.71432V18.1071Z" />
<path d="M9.4286 18.1071H14.1429V18.8928H9.4286V18.1071Z" />
<path d="M2.35719 20.0714H11.7857V20.8571H2.35719V20.0714Z" />
<path d="M12.5714 20.0714H14.1429V20.8571H12.5714V20.0714Z" />
<path d="M20.0357 4.35716C19.515 4.35786 19.0157 4.56499 18.6474 4.93311C18.2792 5.30141 18.0721 5.80072 18.0714 6.32144V19.2857C18.0714 19.375 18.1018 19.4616 18.1575 19.5312L19.729 21.4955C19.8035 21.5888 19.9163 21.643 20.0357 21.643C20.1551 21.643 20.2679 21.5888 20.3424 21.4955L21.9139 19.5312C21.9696 19.4616 22 19.375 22 19.2857V6.32144C21.9993 5.80072 21.7922 5.30141 21.424 4.93311C21.0557 4.56499 20.5564 4.35788 20.0357 4.35716ZM20.0357 5.14287C20.3482 5.14287 20.6482 5.26704 20.8691 5.48803C21.09 5.70901 21.2143 6.00893 21.2143 6.32142V7.49999H18.8571V6.32142C18.8571 6.00889 18.9813 5.70897 19.2023 5.48803C19.4233 5.26708 19.7232 5.14287 20.0357 5.14287H20.0357ZM20.4286 18.8928V9.07143H19.6429V18.8928H18.8571V8.28572H21.2143V18.8928H20.4286ZM20.0357 20.6214L19.2814 19.6785H20.79L20.0357 20.6214Z"/>
</svg>
