<svg width="20" height="27" viewBox="0 0 20 27" fill="none" xmlns="http://www.w3.org/2000/svg">
<path d="M10 0C8.83837 0 7.86486 0.712791 7.41966 1.71429H5.14286C4.84366 1.71431 4.57146 1.98652 4.57143 2.28571V2.85714H0.571429C0.251429 2.858 0.0002 3.15615 0 3.42857V25.7143C2.85714e-05 26.0135 0.272229 26.2857 0.571429 26.2857H19.4286C19.7278 26.2857 20 26.0135 20 25.7143V3.42857C20 3.12938 19.7278 2.85717 19.4286 2.85714H15.4286V2.28571C15.4285 1.98652 15.1563 1.71431 14.8571 1.71429H12.5804C12.1351 0.712791 11.1616 0 10 0ZM10 1.14286C10.8093 1.14286 11.4713 1.68013 11.6607 2.41964C11.7201 2.66607 11.9608 2.85626 12.2143 2.85714H14.2857V4.57143H5.71429V2.85714H7.78571C8.0392 2.85629 8.27986 2.66607 8.33929 2.41964C8.52869 1.68013 9.19074 1.14286 10 1.14286ZM1.14286 4H4.57143V5.14286C4.57146 5.44205 4.84366 5.71426 5.14286 5.71429H14.8571C15.1563 5.71426 15.4285 5.44205 15.4286 5.14286V4H18.8571V25.1429H1.14286V4ZM13.0893 6.85714C12.9455 6.87203 12.8084 6.94384 12.7143 7.05357L9.06251 11.2321L7.19643 9.83036C6.95597 9.64851 6.57186 9.70384 6.39286 9.94643C6.21386 10.189 6.27317 10.5739 6.51786 10.75L8.80357 12.4643C9.03066 12.6324 9.38409 12.5954 9.57143 12.3839L13.5714 7.8125C13.7279 7.64272 13.7647 7.36681 13.6607 7.16071C13.5567 6.95462 13.3188 6.83216 13.0893 6.85714ZM4 14.2857C3.6844 14.2857 3.42857 14.5415 3.42857 14.8571C3.42857 15.1727 3.6844 15.4286 4 15.4286H16C16.3156 15.4286 16.5714 15.1727 16.5714 14.8571C16.5714 14.5415 16.3156 14.2857 16 14.2857H4ZM4 18.2857C3.6844 18.2857 3.42857 18.5415 3.42857 18.8571C3.42857 19.1727 3.6844 19.4286 4 19.4286H16C16.3156 19.4286 16.5714 19.1727 16.5714 18.8571C16.5714 18.5415 16.3156 18.2857 16 18.2857H4ZM4 22.2857C3.6844 22.2857 3.42857 22.5415 3.42857 22.8571C3.42857 23.1727 3.6844 23.4286 4 23.4286H16C16.3156 23.4286 16.5714 23.1727 16.5714 22.8571C16.5714 22.5415 16.3156 22.2857 16 22.2857H4Z" fill="#546E7A"/>
</svg>
