<svg width="21" height="23" viewBox="0 0 21 23" fill="none" xmlns="http://www.w3.org/2000/svg">
<path d="M3.24881 6.69663C3.82951 6.69384 4.39886 6.53555 4.89767 6.23823C5.39648 5.94091 5.80655 5.51541 6.08525 5.00595C6.36394 4.4965 6.50109 3.92169 6.48243 3.34129C6.46377 2.76089 6.28999 2.19608 5.97915 1.70558L6.66719 0.901038C6.76133 0.79097 6.80788 0.648015 6.79662 0.503621C6.78535 0.359226 6.71719 0.225221 6.60712 0.131084C6.49705 0.0369474 6.3541 -0.00960926 6.20971 0.00165555C6.06531 0.0129204 5.93131 0.0810842 5.83717 0.191152L5.2365 0.893758C4.82885 0.576326 4.35127 0.360865 3.84352 0.265312C3.33577 0.16976 2.81254 0.196881 2.31739 0.344417C1.82225 0.491953 1.3695 0.755636 0.99686 1.11351C0.624217 1.47139 0.342453 1.91311 0.175029 2.40189C0.00760379 2.89067 -0.0406388 3.41238 0.0343173 3.92357C0.109273 4.43477 0.305259 4.92066 0.605959 5.3408C0.906658 5.76095 1.30337 6.10318 1.76307 6.33901C2.22277 6.57484 2.73215 6.69745 3.24881 6.69663V6.69663ZM3.24881 1.30149C3.70924 1.30017 4.15764 1.44836 4.52661 1.72378L3.35439 3.09259L2.86657 2.17519C2.79544 2.05384 2.68023 1.96462 2.54495 1.92611C2.40967 1.8876 2.26474 1.90278 2.14038 1.96849C2.01601 2.03419 1.92179 2.14535 1.87735 2.2788C1.83292 2.41226 1.84169 2.55771 1.90185 2.68486L2.7792 4.31578C2.82124 4.39383 2.88167 4.46048 2.95524 4.50995C3.02882 4.55942 3.11333 4.59024 3.20149 4.59973C3.28958 4.61045 3.37896 4.59909 3.46157 4.56668C3.54418 4.53427 3.61744 4.48183 3.67474 4.41407L5.23286 2.59385C5.41845 3.01785 5.46237 3.4904 5.35809 3.94134C5.25381 4.39228 5.00688 4.79758 4.65398 5.09705C4.30108 5.39652 3.861 5.5742 3.3991 5.60371C2.9372 5.63323 2.4781 5.513 2.08995 5.26088C1.7018 5.00876 1.4053 4.63819 1.24447 4.20419C1.08364 3.77019 1.06706 3.29589 1.19718 2.85171C1.32731 2.40754 1.5972 2.01717 1.96679 1.73855C2.33639 1.45994 2.78598 1.30794 3.24881 1.30513V1.30149Z" fill="#546E7A"/>
<path d="M8.33818 2.00778H17.1444C17.2892 2.00778 17.4281 1.95025 17.5305 1.84784C17.633 1.74544 17.6905 1.60654 17.6905 1.46172C17.6905 1.31689 17.633 1.178 17.5305 1.07559C17.4281 0.973181 17.2892 0.915649 17.1444 0.915649H8.33818C8.19336 0.915649 8.05446 0.973181 7.95205 1.07559C7.84965 1.178 7.79211 1.31689 7.79211 1.46172C7.79211 1.60654 7.84965 1.74544 7.95205 1.84784C8.05446 1.95025 8.19336 2.00778 8.33818 2.00778V2.00778Z" fill="#546E7A"/>
<path d="M8.33818 4.38498H20.3007C20.4455 4.38498 20.5844 4.32745 20.6868 4.22504C20.7892 4.12263 20.8467 3.98374 20.8467 3.83891C20.8467 3.69409 20.7892 3.55519 20.6868 3.45279C20.5844 3.35038 20.4455 3.29285 20.3007 3.29285H8.33818C8.19336 3.29285 8.05446 3.35038 7.95205 3.45279C7.84965 3.55519 7.79211 3.69409 7.79211 3.83891C7.79211 3.98374 7.84965 4.12263 7.95205 4.22504C8.05446 4.32745 8.19336 4.38498 8.33818 4.38498V4.38498Z" fill="#546E7A"/>
<path d="M3.24879 14.8621C3.83137 14.8595 4.40254 14.7003 4.90252 14.4012C5.40251 14.1022 5.81296 13.6743 6.09092 13.1623C6.36887 12.6503 6.50413 12.073 6.48255 11.4908C6.46096 10.9086 6.28331 10.3429 5.9682 9.85289L6.66716 9.03744C6.71497 8.98294 6.75158 8.91955 6.77489 8.85091C6.7982 8.78226 6.80776 8.70969 6.80303 8.63735C6.7983 8.56501 6.77936 8.49431 6.7473 8.42929C6.71525 8.36426 6.6707 8.30619 6.6162 8.25838C6.5617 8.21057 6.49832 8.17397 6.42967 8.15066C6.36102 8.12734 6.28846 8.11778 6.21611 8.12252C6.14377 8.12725 6.07307 8.14618 6.00805 8.17824C5.94302 8.2103 5.88495 8.25485 5.83714 8.30935L5.22191 9.03744C4.81245 8.7258 4.33472 8.51604 3.82819 8.4255C3.32165 8.33495 2.80084 8.36622 2.30878 8.51671C1.81671 8.6672 1.36751 8.9326 0.998277 9.29099C0.629042 9.64938 0.35037 10.0905 0.185276 10.5778C0.0201828 11.0652 -0.026594 11.5848 0.0488102 12.0938C0.124214 12.6029 0.319636 13.0866 0.618932 13.5052C0.918229 13.9238 1.31281 14.2651 1.77009 14.5011C2.22737 14.737 2.73422 14.8608 3.24879 14.8621V14.8621ZM3.24879 9.46701C3.70296 9.46592 4.14558 9.61006 4.51202 9.87838L3.35436 11.229L2.86654 10.308C2.79847 10.18 2.68237 10.0844 2.54378 10.042C2.40519 9.99971 2.25546 10.0142 2.12753 10.0822C1.9996 10.1503 1.90395 10.2664 1.86162 10.405C1.81929 10.5436 1.83375 10.6933 1.90182 10.8213L2.77917 12.4485C2.82052 12.5275 2.88068 12.595 2.95433 12.6452C3.02799 12.6953 3.11286 12.7266 3.20146 12.7361C3.28986 12.7464 3.37944 12.7345 3.46207 12.7014C3.54471 12.6684 3.6178 12.6152 3.67472 12.5468L5.22191 10.7266C5.41202 11.1502 5.46001 11.6239 5.35872 12.077C5.25742 12.5301 5.01228 12.9383 4.65989 13.2406C4.3075 13.5429 3.86678 13.7231 3.40354 13.7542C2.9403 13.7854 2.47941 13.6659 2.08968 13.4136C1.69996 13.1612 1.40232 12.7896 1.24122 12.3541C1.08012 11.9187 1.06419 11.4428 1.19583 10.9976C1.32746 10.5524 1.59958 10.1617 1.97157 9.88383C2.34355 9.60599 2.79542 9.45594 3.25971 9.45609L3.24879 9.46701Z" fill="#546E7A"/>
<path d="M8.33818 10.1732H17.1444C17.2892 10.1732 17.4281 10.1157 17.5305 10.0132C17.633 9.91084 17.6905 9.77195 17.6905 9.62712C17.6905 9.4823 17.633 9.3434 17.5305 9.24099C17.4281 9.13859 17.2892 9.08105 17.1444 9.08105H8.33818C8.19336 9.08105 8.05446 9.13859 7.95205 9.24099C7.84965 9.3434 7.79211 9.4823 7.79211 9.62712C7.79211 9.77195 7.84965 9.91084 7.95205 10.0132C8.05446 10.1157 8.19336 10.1732 8.33818 10.1732V10.1732Z" fill="#546E7A"/>
<path d="M8.33818 12.5505H20.3007C20.4455 12.5505 20.5844 12.493 20.6868 12.3906C20.7892 12.2882 20.8467 12.1493 20.8467 12.0044C20.8467 11.8596 20.7892 11.7207 20.6868 11.6183C20.5844 11.5159 20.4455 11.4584 20.3007 11.4584H8.33818C8.19336 11.4584 8.05446 11.5159 7.95205 11.6183C7.84965 11.7207 7.79211 11.8596 7.79211 12.0044C7.79211 12.1493 7.84965 12.2882 7.95205 12.3906C8.05446 12.493 8.19336 12.5505 8.33818 12.5505V12.5505Z" fill="#546E7A"/>
<path d="M3.24889 22.9949C3.67485 22.9949 4.09664 22.911 4.49017 22.748C4.88371 22.585 5.24128 22.3461 5.54248 22.0449C5.84368 21.7437 6.08261 21.3861 6.24561 20.9926C6.40862 20.599 6.49252 20.1772 6.49252 19.7513C6.31414 15.4483 0.183631 15.4519 0.00524902 19.7513C0.00621258 20.6112 0.348261 21.4357 0.956352 22.0438C1.56444 22.6519 2.38892 22.994 3.24889 22.9949V22.9949ZM3.24889 17.5998C3.67441 17.5998 4.09038 17.726 4.4442 17.9624C4.79801 18.1988 5.07377 18.5348 5.23662 18.9279C5.39946 19.3211 5.44206 19.7537 5.35905 20.171C5.27603 20.5884 5.07112 20.9717 4.77023 21.2726C4.46934 21.5735 4.08597 21.7784 3.66862 21.8614C3.25127 21.9445 2.81868 21.9019 2.42554 21.739C2.03241 21.5762 1.69639 21.3004 1.45998 20.9466C1.22357 20.5928 1.09738 20.1768 1.09738 19.7513C1.09835 19.181 1.32533 18.6343 1.72861 18.231C2.13188 17.8277 2.67857 17.6007 3.24889 17.5998V17.5998Z" fill="#546E7A"/>
<path d="M8.33818 18.3097H17.1444C17.2892 18.3097 17.4281 18.2521 17.5305 18.1497C17.633 18.0473 17.6905 17.9084 17.6905 17.7636C17.6905 17.6188 17.633 17.4799 17.5305 17.3775C17.4281 17.2751 17.2892 17.2175 17.1444 17.2175H8.33818C8.19336 17.2175 8.05446 17.2751 7.95205 17.3775C7.84965 17.4799 7.79211 17.6188 7.79211 17.7636C7.79211 17.9084 7.84965 18.0473 7.95205 18.1497C8.05446 18.2521 8.19336 18.3097 8.33818 18.3097V18.3097Z" fill="#546E7A"/>
<path d="M8.33818 20.6832H20.3007C20.4455 20.6832 20.5844 20.6257 20.6868 20.5233C20.7892 20.4208 20.8467 20.282 20.8467 20.1371C20.8467 19.9923 20.7892 19.8534 20.6868 19.751C20.5844 19.6486 20.4455 19.5911 20.3007 19.5911H8.33818C8.19336 19.5911 8.05446 19.6486 7.95205 19.751C7.84965 19.8534 7.79211 19.9923 7.79211 20.1371C7.79211 20.282 7.84965 20.4208 7.95205 20.5233C8.05446 20.6257 8.19336 20.6832 8.33818 20.6832V20.6832Z" fill="#546E7A"/>
</svg>
