<svg width="27" height="23" viewBox="0 0 18 22" fill="none" xmlns="http://www.w3.org/2000/svg">
<path d="M0.448182 0C0.149036 0.0259802 -0.0753952 0.377278 0.0237818 0.664302V18.0064C0.0252618 18.2113 0.164422 18.4081 0.355586 18.4753L10.2325 21.9766C10.5277 22.0803 10.8862 21.824 10.8884 21.5076V18.5066H14.8392C15.0978 18.5065 15.333 18.2683 15.3331 18.0064V11.0039C15.3391 10.7201 15.0637 10.4648 14.7852 10.4959C14.5425 10.5229 14.3401 10.7567 14.3454 11.0039V17.5062H10.8884V5.50196C10.8911 5.31601 10.782 5.13293 10.6184 5.04867L2.6242 1.00035H14.3454V7.50266C14.3417 7.76691 14.5783 8.01066 14.8392 8.01066C15.1001 8.01066 15.3367 7.76691 15.3331 7.50266V0.500175C15.333 0.238289 15.0978 2.78161e-05 14.8392 0H0.448182ZM1.01148 1.31297L9.90073 5.81456V20.7964L1.01148 17.6469V1.31297ZM17.0692 7.19005L19.6851 8.7531H11.6292C11.6138 8.75234 11.5983 8.75234 11.5829 8.7531C11.3365 8.76597 11.1232 9.01483 11.1354 9.27672C11.1475 9.53862 11.3828 9.76635 11.6292 9.75347H19.716L17.0692 11.3322C16.8733 11.4759 16.8087 11.7768 16.9303 11.9887C17.052 12.2005 17.343 12.2935 17.5631 12.1918L21.7531 9.75347C21.9328 9.63902 21.971 9.41885 22 9.25328C21.9741 9.05564 21.8479 8.87535 21.7531 8.7531L17.5631 6.33037C16.9748 6.24824 16.7997 6.8744 17.0692 7.19005Z" fill="#546E7A"/>
</svg>
