<svg width="27" height="23" viewBox="0 0 27 23" fill="none" xmlns="http://www.w3.org/2000/svg">
<path d="M15.0386 20.3462C15.2732 20.3462 15.4982 20.253 15.6641 20.0871C15.83 19.9212 15.9232 19.6962 15.9232 19.4616V13.6356L17.0669 14.7793C17.2358 14.9396 17.4596 15.0289 17.6924 15.0289C17.9252 15.0289 18.1491 14.9396 18.3179 14.7793C18.4001 14.6972 18.4653 14.5997 18.5097 14.4924C18.5542 14.3851 18.5771 14.27 18.5771 14.1539C18.5771 14.0377 18.5542 13.9227 18.5097 13.8154C18.4653 13.708 18.4001 13.6105 18.3179 13.5284L15.6652 10.8757C15.4969 10.7136 15.2723 10.6229 15.0386 10.6229C14.8049 10.6229 14.5803 10.7136 14.412 10.8757L11.7593 13.5284C11.6772 13.6105 11.612 13.708 11.5675 13.8154C11.523 13.9227 11.5001 14.0377 11.5001 14.1539C11.5001 14.27 11.523 14.3851 11.5675 14.4924C11.612 14.5997 11.6772 14.6972 11.7593 14.7793C11.9268 14.9421 12.1512 15.0331 12.3848 15.0331C12.6183 15.0331 12.8427 14.9421 13.0102 14.7793L14.154 13.6356V19.4616C14.154 19.6962 14.2472 19.9212 14.4131 20.0871C14.579 20.253 14.804 20.3462 15.0386 20.3462Z" fill="#546E7A"/>
<path d="M19.0194 7.96154H18.5771V7.07692C18.5771 5.20001 17.8315 3.39996 16.5043 2.07278C15.1771 0.745602 13.3771 0 11.5002 0C9.62327 0 7.82322 0.745602 6.49604 2.07278C5.16886 3.39996 4.42326 5.20001 4.42326 7.07692V9.36445C2.90076 9.98009 1.63982 11.1061 0.856586 12.5496C0.0733487 13.993 -0.183406 15.664 0.130335 17.276C0.444075 18.888 1.30877 20.3407 2.5762 21.385C3.84363 22.4294 5.43485 23.0003 7.07711 23H11.5002C11.7348 23 11.9598 22.9068 12.1257 22.7409C12.2916 22.575 12.3848 22.35 12.3848 22.1154C12.3848 21.8808 12.2916 21.6558 12.1257 21.4899C11.9598 21.324 11.7348 21.2308 11.5002 21.2308H7.07711C5.8023 21.231 4.57001 20.7723 3.60562 19.9386C2.64122 19.1049 2.00916 17.9519 1.82503 16.6904C1.6409 15.429 1.91702 14.1434 2.60287 13.0689C3.28873 11.9943 4.33849 11.2025 5.56017 10.8383C5.74278 10.784 5.90297 10.6721 6.01691 10.5194C6.13084 10.3667 6.19242 10.1813 6.19249 9.99076V7.07692C6.19249 5.66924 6.75169 4.3192 7.74708 3.32382C8.74246 2.32843 10.0925 1.76923 11.5002 1.76923C12.9079 1.76923 14.2579 2.32843 15.2533 3.32382C16.2487 4.3192 16.8079 5.66924 16.8079 7.07692V8.84615C16.8079 9.08077 16.9011 9.30577 17.067 9.47167C17.2329 9.63757 17.4579 9.73077 17.6925 9.73077H19.0194C20.5444 9.73077 22.0069 10.3366 23.0853 11.4149C24.1636 12.4932 24.7694 13.9558 24.7694 15.4808C24.7694 17.0058 24.1636 18.4683 23.0853 19.5466C22.0069 20.625 20.5444 21.2308 19.0194 21.2308C18.7848 21.2308 18.5598 21.324 18.3939 21.4899C18.228 21.6558 18.1348 21.8808 18.1348 22.1154C18.1348 22.35 18.228 22.575 18.3939 22.7409C18.5598 22.9068 18.7848 23 19.0194 23C21.0136 23 22.9262 22.2078 24.3363 20.7977C25.7464 19.3875 26.5386 17.475 26.5386 15.4808C26.5386 13.4865 25.7464 11.574 24.3363 10.1639C22.9262 8.75374 21.0136 7.96154 19.0194 7.96154Z" fill="#546E7A"/>
</svg>
