<svg width="14" height="15" viewBox="0 0 14 15" fill="none" xmlns="http://www.w3.org/2000/svg">
<path fill-rule="evenodd" clip-rule="evenodd" d="M8.65229 1.96924L0.717655 9.91396C0.662988 9.96897 0.626785 10.0397 0.614076 10.1162L0.00479986 13.8511C-0.00459168 13.909 -0.000160108 13.9682 0.0177312 14.024C0.0356225 14.0797 0.0664638 14.1305 0.107725 14.172C0.148987 14.2135 0.199494 14.2447 0.255103 14.2629C0.310711 14.2811 0.369838 14.2859 0.427634 14.2767L4.17576 13.6852C4.25306 13.6728 4.32451 13.6364 4.37996 13.5811L12.3142 5.63601L8.65229 1.96924ZM9.17537 1.44511L12.8377 5.11224L13.4581 4.49068C13.6299 4.31873 13.7662 4.11457 13.8591 3.88986C13.9521 3.66515 14 3.4243 14 3.18107C14 2.93783 13.9521 2.69698 13.8591 2.47227C13.7662 2.24756 13.6299 2.0434 13.4581 1.87145L12.4119 0.823913C12.2402 0.651874 12.0363 0.5154 11.8119 0.422287C11.5875 0.329175 11.3469 0.28125 11.104 0.28125C10.8611 0.28125 10.6205 0.329175 10.3961 0.422287C10.1717 0.5154 9.96783 0.651874 9.79611 0.823913L9.17537 1.44511Z" fill="#4E4F54"/>
</svg>
