<svg width="16" height="15" viewBox="0 0 16 15" fill="none" xmlns="http://www.w3.org/2000/svg">
<path fill-rule="evenodd" clip-rule="evenodd" d="M7.23892 14.7795H7.96282H8.68671C9.1693 14.7795 9.59157 14.3572 9.59157 13.8746V11.341H9.89319C10.4361 11.341 10.8584 10.9187 10.8584 10.4361V5.97211C10.8584 5.06725 10.3155 4.58465 9.47092 4.58465H7.96282H6.45471C5.54984 4.58465 5.06725 5.06725 5.06725 5.97211V10.4361C5.06725 10.9187 5.48952 11.341 5.97211 11.341H6.27373V13.8746C6.27373 14.3572 6.696 14.7795 7.23892 14.7795ZM1.87006 13.573H2.89557C3.07654 13.573 3.19719 13.4523 3.19719 13.2714V11.2203H3.74011C3.92108 11.2203 4.04173 11.0394 4.04173 10.8584V7.78184C4.04173 7.35957 3.86076 7.1786 3.43849 7.1786H1.32714C0.904865 7.1786 0.723892 7.35957 0.723892 7.78184V10.8584C0.723892 11.0394 0.844541 11.2203 1.02551 11.2203H1.56843V11.522V13.2714C1.56843 13.4523 1.68908 13.573 1.87006 13.573ZM2.35265 3.25752C3.37816 3.25752 4.16238 4.04173 4.16238 5.06725C4.16238 5.61017 3.92108 6.15308 3.49881 6.45471C4.28303 6.51503 4.76562 6.99763 4.76562 7.78184V10.8584C4.76562 11.4013 4.34335 11.8236 3.86076 11.8839V13.2714C3.86076 13.8143 3.43849 14.2969 2.89557 14.2969H1.87006C1.32714 14.2969 0.904865 13.8143 0.904865 13.2714V11.8839C0.361946 11.8236 0 11.4013 0 10.8584V7.78184C0 6.99763 0.482595 6.51503 1.26681 6.45471C0.844541 6.15308 0.542919 5.61017 0.542919 5.06725C0.542919 4.04173 1.38746 3.25752 2.35265 3.25752ZM2.35265 3.92108C1.74941 3.92108 1.26681 4.464 1.26681 5.06725C1.26681 5.67049 1.74941 6.21341 2.35265 6.21341C3.01622 6.21341 3.49881 5.67049 3.49881 5.06725C3.49881 4.464 3.01622 3.92108 2.35265 3.92108ZM13.0301 13.573H13.9953C14.1762 13.573 14.2969 13.4523 14.2969 13.2714V11.2203H14.8398C15.0208 11.2203 15.2017 11.0394 15.2017 10.8584V7.78184C15.2017 7.35957 14.9604 7.1786 14.5382 7.1786H12.4871C12.0649 7.1786 11.8236 7.35957 11.8236 7.78184V10.8584C11.8236 11.0394 12.0045 11.2203 12.1252 11.2203H12.6681V11.522V13.2714C12.6681 13.4523 12.8491 13.573 13.0301 13.573ZM13.5127 3.25752C14.4778 3.25752 15.3224 4.04173 15.3224 5.06725C15.3224 5.61017 15.0811 6.15308 14.6588 6.45471C15.3827 6.51503 15.8653 6.99763 15.8653 7.78184V10.8584C15.8653 11.4013 15.5034 11.8236 15.0208 11.8839V13.2714C15.0208 13.8143 14.5382 14.2969 13.9953 14.2969H13.0301C12.4268 14.2969 12.0045 13.8143 12.0045 13.2714V11.8839C11.522 11.8236 11.16 11.4013 11.16 10.8584V7.78184C11.16 6.99763 11.6426 6.51503 12.3665 6.45471C11.9442 6.15308 11.7029 5.61017 11.7029 5.06725C11.7029 4.04173 12.4871 3.25752 13.5127 3.25752ZM13.5127 3.92108C12.9094 3.92108 12.3665 4.464 12.3665 5.06725C12.3665 5.67049 12.9094 6.21341 13.5127 6.21341C14.1159 6.21341 14.5985 5.67049 14.5985 5.06725C14.5985 4.464 14.1159 3.92108 13.5127 3.92108ZM7.96282 0C9.10898 0 10.0742 0.904865 10.0742 2.11135C10.0742 3.25752 9.10898 4.2227 7.96282 4.2227C6.75633 4.2227 5.85146 3.25752 5.85146 2.11135C5.85146 0.904865 6.75633 0 7.96282 0ZM7.96282 6.09276L8.32476 7.35957H9.6519L8.56606 8.08346L8.98833 9.35028L7.96282 8.56606L6.87698 9.35028L7.29925 8.08346L6.27373 7.35957H7.54054L7.96282 6.09276Z" fill="#4CAF50"/>
</svg>
