<svg width="17" height="13" viewBox="0 0 17 13" fill="none" xmlns="http://www.w3.org/2000/svg">
<path fill-rule="evenodd" clip-rule="evenodd" d="M5.64719 8.00954L3.0865 5.44885C2.24771 4.61006 1.54819 4.41698 1.03859 4.57841C0.832844 4.64171 0.652425 4.76516 0.503658 4.92342C0.348561 5.08801 0.228282 5.29375 0.14282 5.51849C-0.0914086 6.13254 -0.0502603 6.87005 0.361222 7.28153L4.16269 11.083C4.89069 11.811 5.38447 12.1782 5.8371 12.1782C6.2929 12.1782 6.78351 11.8142 7.51152 11.0862L15.8425 2.75522C16.2539 2.34374 16.2951 1.6094 16.0609 0.99218C15.9754 0.767448 15.852 0.561706 15.7 0.397114C15.5513 0.238851 15.3708 0.118572 15.1651 0.0521014C14.6523 -0.109326 13.956 0.0837539 13.1172 0.922545L6.03018 8.00954L5.84027 8.19945L5.65035 8.00954H5.64719Z" fill="#4CAF50"/>
</svg>
