<svg width="27" height="23" viewBox="0 0 20 23" fill="none" xmlns="http://www.w3.org/2000/svg">
<path d="M12.9932 9.67882H12.4555C11.8506 10.2389 10.8874 10.5974 9.78959 10.5974C8.69183 10.5974 7.72857 10.2389 7.12366 9.67882H6.74284C4.77155 9.67882 3.20338 10.8885 3.20338 12.3447H16.376C16.376 10.8885 14.8526 9.67882 12.9932 9.67882H12.9932Z"/>
<path d="M9.7897 1.99475C7.61666 1.99475 5.82443 3.76446 5.82443 5.96001C5.82443 8.13305 7.59414 9.92528 9.7897 9.92528C11.9627 9.92528 13.755 8.15557 13.755 5.96001C13.755 3.76462 11.9627 1.99475 9.7897 1.99475V1.99475ZM9.7897 9.0291C8.08716 9.0291 6.72061 7.64019 6.72061 5.96001C6.72061 5.69123 6.76546 5.4448 6.81015 5.22074C7.16862 5.39998 7.81822 5.64642 8.57986 5.64642C9.11756 5.64642 9.69998 5.51203 10.2377 5.13121C10.3049 5.08636 11.6491 4.12314 12.7243 5.08636C12.8139 5.35514 12.8587 5.66878 12.8587 5.96005C12.8587 7.64023 11.4698 9.02914 9.78964 9.02914L9.7897 9.0291Z" />
<path d="M19.0867 21.5969H16.9136C17.048 21.4176 17.1377 21.1937 17.1377 20.9473V13.8457C17.1377 13.2408 16.6449 12.7705 16.0625 12.7705H3.51712C2.91221 12.7705 2.44184 13.2633 2.44184 13.8457V20.9249C2.44184 21.1713 2.53138 21.3954 2.66593 21.5745H0.201586C0.0895416 21.5745 0 21.664 0 21.7761V21.7984C0 21.9105 0.0895416 22 0.201586 22H19.0868C19.1988 22 19.2884 21.9105 19.2884 21.7984V21.7761C19.2884 21.6865 19.1988 21.5968 19.0868 21.5968L19.0867 21.5969ZM9.78968 18.5502C9.11757 18.5502 8.58003 18.0125 8.58003 17.3405C8.58003 16.6684 9.11773 16.1309 9.78968 16.1309C10.4618 16.1309 10.9993 16.6686 10.9993 17.3405C10.9993 18.0126 10.4618 18.5502 9.78968 18.5502Z" />
<path d="M18.6834 4.30224C18.6834 4.45069 18.5631 4.57118 18.4145 4.57118C18.2661 4.57118 18.1457 4.4507 18.1457 4.30224C18.1457 4.15379 18.266 4.03346 18.4145 4.03346C18.5631 4.03346 18.6834 4.15379 18.6834 4.30224Z" />
<path d="M18.4146 2.15164C18.213 2.15164 18.0561 2.30853 18.0561 2.51012V2.89094H18.7731V2.51012C18.7731 2.30837 18.6163 2.15164 18.4146 2.15164H18.4146Z" />
<path d="M21.9318 2.73402C21.4389 0.785055 19.4674 -0.379909 17.5185 0.112943C15.5695 0.605796 14.4046 2.59961 14.8974 4.54862C15.1439 5.46716 15.7039 6.20644 16.4432 6.69933L15.48 8.1554L19.3109 7.16966C21.2597 6.65444 22.4247 4.68299 21.9318 2.73398L21.9318 2.73402ZM19.8708 4.79504C19.8708 4.92944 19.7812 5.01913 19.6692 5.01913H17.16C17.0479 5.01913 16.9584 4.90709 16.9584 4.79504L16.9361 3.11486C16.9361 3.00282 17.0481 2.91328 17.1601 2.91328H17.5858V2.53246C17.5858 2.08445 17.9443 1.72597 18.3923 1.72597C18.8403 1.72597 19.1988 2.08445 19.1988 2.53246V2.91328H19.6245C19.7589 2.91328 19.8486 3.00282 19.8486 3.11486L19.8708 4.79504Z" />
</svg>
