<svg width="27" height="23" viewBox="0 0 27 23" fill="none" xmlns="http://www.w3.org/2000/svg">
<path d="M20.6949 5.96606H19.2034C18.4839 5.96606 17.8983 6.55161 17.8983 7.27115V18.4576C17.8983 19.1771 18.4839 19.7627 19.2034 19.7627H20.6949C21.4145 19.7627 22 19.1771 22 18.4576V7.27115C22 6.55161 21.4145 5.96606 20.6949 5.96606Z" />
<path d="M13.2372 8.9491C12.5177 8.9491 11.9321 9.53464 11.9321 10.2542V18.4576C11.9321 19.1771 12.5177 19.7627 13.2372 19.7627H14.7287C15.4483 19.7627 16.0338 19.1771 16.0338 18.4576V10.2542C16.0338 9.53464 15.4483 8.9491 14.7287 8.9491H13.2372Z" />
<path d="M7.27115 11.9321C6.55161 11.9321 5.96606 12.5177 5.96606 13.2372V18.4576C5.96606 19.1771 6.55161 19.7626 7.27115 19.7626H8.76267C9.48222 19.7626 10.0678 19.1771 10.0678 18.4576V13.2372C10.0678 12.5177 9.48222 11.9321 8.76267 11.9321H7.27115Z"/>
<path d="M1.30508 19.7627H2.79661C3.51615 19.7627 4.1017 19.1772 4.1017 18.4577V16.2204C4.1017 15.5008 3.51615 14.9153 2.79661 14.9153H1.30508C0.585543 14.9153 0 15.5008 0 16.2204V18.4577C0 19.1772 0.585543 19.7627 1.30508 19.7627Z" />
<path d="M21.4407 20.8813H0.559322C0.250532 20.8813 0 21.1319 0 21.4407C0 21.7495 0.250532 22 0.559322 22H21.4407C21.7495 22 22 21.7495 22 21.4407C22 21.1319 21.7495 20.8813 21.4407 20.8813Z" />
<path d="M2.05044 11.6114C2.09268 11.6114 2.13565 11.6067 2.17898 11.5965C8.91688 10.0117 14.9708 6.62506 19.3898 2.00009V3.54237C19.3898 3.85116 19.6403 4.1017 19.9491 4.1017C20.2579 4.1017 20.5084 3.85116 20.5084 3.54237V0.559322C20.5084 0.250532 20.2579 0 19.9491 0H16.9661C16.6573 0 16.4067 0.250532 16.4067 0.559322C16.4067 0.868113 16.6573 1.11864 16.9661 1.11864H18.6888C14.4099 5.64452 8.5054 8.95926 1.92262 10.5077C1.62221 10.5783 1.43577 10.8795 1.50641 11.1803C1.56686 11.4377 1.79663 11.6114 2.05044 11.6114Z" />
</svg>
