<svg width="27" height="23" viewBox="0 0 27 23" fill="none" xmlns="http://www.w3.org/2000/svg">
<path d="M16 22.6666H0V0H16V22.6666ZM1.33336 21.3333H14.6667V1.33332H1.33336V21.3333Z" />
<path d="M11.3334 8.66669H10.0001C10.0001 7.56391 9.10289 6.66669 8.00007 6.66669C6.89724 6.66669 6.00007 7.56391 6.00007 8.66669H4.66675C4.66675 6.82871 6.16204 5.33337 8.00007 5.33337C9.83809 5.33337 11.3334 6.82871 11.3334 8.66669Z"/>
<path d="M8 6.6667C6.89717 6.6667 6 5.76948 6 4.6667C6 3.56392 6.89717 2.66675 8 2.66675C9.10283 2.66675 10 3.56397 10 4.66675C10 5.76953 9.10283 6.6667 8 6.6667ZM8 4.00007C7.63238 4.00007 7.33332 4.29912 7.33332 4.66675C7.33332 5.03437 7.63238 5.33343 8 5.33343C8.36763 5.33343 8.66668 5.03437 8.66668 4.66675C8.66668 4.29912 8.36763 4.00007 8 4.00007Z" />
<path d="M12.6666 10.6666H6V11.9999H12.6666V10.6666Z" />
<path d="M12.6666 13.3334H6V14.6667H12.6666V13.3334Z" />
<path d="M12.6666 16H6V17.3333H12.6666V16Z" />
<path d="M12.6666 18.6666H6V19.9999H12.6666V18.6666Z" />
<path d="M4.66669 10.6666H3.33337V11.9999H4.66669V10.6666Z" />
<path d="M4.66669 13.3334H3.33337V14.6667H4.66669V13.3334Z" />
<path d="M4.66669 16H3.33337V17.3333H4.66669V16Z" />
<path d="M4.66669 18.6666H3.33337V19.9999H4.66669V18.6666Z"/>
</svg>
