<svg width="27" height="23" viewBox="0 0 27 23" fill="none" xmlns="http://www.w3.org/2000/svg">
<path d="M12.1983 6.53764C14.0036 6.53764 15.4671 5.07414 15.4671 3.26882C15.4671 1.4635 14.0036 0 12.1983 0C10.3929 0 8.92944 1.4635 8.92944 3.26882C8.92944 5.07414 10.3929 6.53764 12.1983 6.53764Z" />
<path d="M19.5387 6.45158C20.8848 6.45158 21.976 5.36037 21.976 4.0143C21.976 2.66823 20.8848 1.57703 19.5387 1.57703C18.1926 1.57703 17.1014 2.66823 17.1014 4.0143C17.1014 5.36037 18.1926 6.45158 19.5387 6.45158Z" />
<path d="M24.3846 12.2151C23.8972 9.14702 22.2914 7.31189 19.5387 7.31189C18.4778 7.31189 17.6176 7.56995 16.9008 8.08608C16.9868 8.17211 17.0728 8.25813 17.1875 8.34415C18.3631 9.57712 19.166 11.3549 19.5387 13.6201C19.5387 13.7062 19.5674 13.7922 19.5674 13.8495C22.2341 13.8782 24.5853 13.4194 24.3846 12.2151Z" />
<path d="M4.85769 6.45158C6.20376 6.45158 7.29496 5.36037 7.29496 4.0143C7.29496 2.66823 6.20376 1.57703 4.85769 1.57703C3.51162 1.57703 2.42041 2.66823 2.42041 4.0143C2.42041 5.36037 3.51162 6.45158 4.85769 6.45158Z" />
<path d="M7.23766 8.34415C7.32368 8.25813 7.4097 8.17211 7.49572 8.08608C6.77887 7.56995 5.88998 7.31189 4.85773 7.31189C2.13371 7.31189 0.527976 9.11834 0.011847 12.2151C-0.18887 13.4194 2.19106 13.8782 4.85773 13.8782C4.85773 13.7922 4.85773 13.7062 4.8864 13.6488C5.23049 11.3836 6.03335 9.6058 7.23766 8.34415Z" />
<path d="M12.1982 16C8.61399 16 5.45986 15.3692 5.71793 13.7922C6.4061 9.66312 8.55664 7.25452 12.1982 7.25452C15.8398 7.25452 17.9903 9.69179 18.6785 13.7922C18.9366 15.3692 15.7824 16 12.1982 16Z" />
</svg>
